<svg width="200" height="200" viewBox="0 0 200 200" xmlns="http://www.w3.org/2000/svg">
  <!-- Candle wax glow/halo -->
  <ellipse cx="100" cy="142" rx="38" ry="8" fill="#C9904A" opacity="0.18"/>
  <!-- Candle body -->
  <rect x="76" y="106" width="48" height="62" rx="8" fill="#2D5A3D"/>
  <!-- Candle highlight stripe -->
  <rect x="84" y="112" width="8" height="50" rx="4" fill="white" opacity="0.12"/>
  <!-- Wax drip -->
  <path d="M76 120 C68 124 64 132 66 140 L76 150" stroke="#1A3D28" stroke-width="3" fill="none" stroke-linecap="round"/>
  <!-- Wick -->
  <line x1="100" y1="106" x2="100" y2="92" stroke="#1A3D28" stroke-width="4" stroke-linecap="round"/>
  <!-- Flame outer glow -->
  <ellipse cx="100" cy="72" rx="22" ry="28" fill="#C9904A" opacity="0.25"/>
  <!-- Flame (heart-shaped) -->
  <path d="M100 92 C100 92 85 76 78 68 C72 58 76 46 84 44 C90 42 98 48 100 56 C102 48 110 42 116 44 C124 46 128 58 122 68 C115 76 100 92 100 92 Z"
        fill="#C9904A"/>
  <path d="M100 92 C100 92 85 76 78 68 C72 58 76 46 84 44 C90 42 98 48 100 56 C102 48 110 42 116 44 C124 46 128 58 122 68 C115 76 100 92 100 92 Z"
        fill="none" stroke="#9A6020" stroke-width="2"/>
  <!-- Inner flame brightness -->
  <path d="M100 80 C100 80 93 70 90 64 C88 56 92 50 96 50 C98 50 100 54 100 58 C100 54 102 50 104 50 C108 50 112 56 110 64 C107 70 100 80 100 80 Z"
        fill="#FFD580" opacity="0.7"/>
</svg>
