<svg width="200" height="200" viewBox="0 0 200 200" xmlns="http://www.w3.org/2000/svg">
  <!-- Feather main vane left -->
  <path d="M100 30 C90 60 60 100 40 140" stroke="#2D5A3D" stroke-width="2" fill="none"/>
  <path d="M100 30 C90 60 60 100 40 140 C60 120 80 90 100 30 Z" fill="#3D7A53" opacity="0.7"/>
  <!-- Feather main vane right -->
  <path d="M100 30 C110 60 140 100 160 140" stroke="#2D5A3D" stroke-width="2" fill="none"/>
  <path d="M100 30 C110 60 140 100 160 140 C140 120 120 90 100 30 Z" fill="#2D5A3D"/>
  <!-- Central quill/rachis -->
  <path d="M100 24 C100 80 95 140 90 174" stroke="#1A3D28" stroke-width="5" stroke-linecap="round" fill="none"/>
  <!-- Barb lines left -->
  <line x1="94" y1="56" x2="66" y2="78" stroke="#2D5A3D" stroke-width="1.5" stroke-linecap="round" opacity="0.6"/>
  <line x1="90" y1="74" x2="58" y2="96" stroke="#2D5A3D" stroke-width="1.5" stroke-linecap="round" opacity="0.6"/>
  <line x1="86" y1="92" x2="54" y2="114" stroke="#2D5A3D" stroke-width="1.5" stroke-linecap="round" opacity="0.6"/>
  <line x1="82" y1="110" x2="52" y2="130" stroke="#2D5A3D" stroke-width="1.5" stroke-linecap="round" opacity="0.5"/>
  <!-- Barb lines right -->
  <line x1="106" y1="56" x2="134" y2="78" stroke="#1A3D28" stroke-width="1.5" stroke-linecap="round" opacity="0.55"/>
  <line x1="110" y1="74" x2="142" y2="96" stroke="#1A3D28" stroke-width="1.5" stroke-linecap="round" opacity="0.55"/>
  <line x1="114" y1="92" x2="146" y2="114" stroke="#1A3D28" stroke-width="1.5" stroke-linecap="round" opacity="0.55"/>
  <line x1="118" y1="110" x2="148" y2="130" stroke="#1A3D28" stroke-width="1.5" stroke-linecap="round" opacity="0.45"/>
  <!-- Small gold heart at quill tip -->
  <path d="M90 162 C90 162 84 156 78 158 C72 161 72 169 78 174 L90 185 L102 174 C108 169 108 161 102 158 C96 156 90 162 90 162 Z"
        fill="#C9904A" stroke="#9A6020" stroke-width="1.5"/>
</svg>
