<svg width="200" height="200" viewBox="0 0 200 200" xmlns="http://www.w3.org/2000/svg">
  <!-- Shield shadow -->
  <path d="M100 172 C100 172 34 142 34 88 L34 52 L100 36 L166 52 L166 88 C166 142 100 172 100 172 Z"
        fill="#1A3D28" opacity="0.18" transform="translate(3,4)"/>
  <!-- Shield body -->
  <path d="M100 172 C100 172 34 142 34 88 L34 52 L100 36 L166 52 L166 88 C166 142 100 172 100 172 Z"
        fill="#2D5A3D"/>
  <!-- Shield inner border -->
  <path d="M100 160 C100 160 46 134 46 88 L46 62 L100 48 L154 62 L154 88 C154 134 100 160 100 160 Z"
        fill="#3D7A53"/>
  <!-- Heart inside shield -->
  <path d="M100 100 C100 100 87 86 74 93 C62 100 62 118 74 128 L100 152 L126 128 C138 118 138 100 126 93 C113 86 100 100 100 100 Z"
        fill="#A06830" opacity="0.3" transform="translate(1.5,2)"/>
  <path d="M100 100 C100 100 87 86 74 93 C62 100 62 118 74 128 L100 152 L126 128 C138 118 138 100 126 93 C113 86 100 100 100 100 Z"
        fill="#C9904A"/>
  <circle cx="85" cy="101" r="6" fill="white" opacity="0.3"/>
</svg>
